<svg height="512" viewBox="0 0 38 60" width="512" xmlns="http://www.w3.org/2000/svg"><g id="Page-1" fill="none" fill-rule="evenodd"><g id="007---Nurse" fill="rgb(0,0,0)" fill-rule="nonzero" transform="translate(0 -1)"><path id="Shape" d="m2 61h34c1.1045695 0 2-.8954305 2-2v-3c-.0071648-6.624447-5.375553-11.9928352-12-12h-1.59c-1.14441-1.4764369-1.7108258-3.3196886-1.593-5.184.6738353-.3346275 1.3261058-.7110273 1.953-1.127 1.432 2.929 4.717 4.539 9.308 4.539.4186667 0 .849-.0133333 1.291-.04.6580335-.0450381 1.2499242-.4162365 1.577-.989.336304-.5872081.356572-1.30372.054-1.909-.732-1.494-.545-3.534-.308-6.116.361-3.926.81-8.812-1.756-14.582-.9605371-2.1672471-2.476291-4.0424493-4.394-5.436l1.946-6.321c.4431674-1.41844412-.2272-2.94650612-1.571-3.581-3.7599513-1.6129566-7.8276978-2.38233652-11.917-2.254-4.0861838-.12823122-8.1508354.6404617-11.908 2.252-1.34666824.63243653-2.0202644 2.16147422-1.578 3.582l1.954 6.346c-1.90537302 1.3893327-3.41037458 3.2568731-4.363 5.414-2.564 5.768-2.116 10.655-1.754 14.58.237 2.583.423 4.622-.305 6.109-.30601895.606722-.28800001 1.3263536.048 1.917.32912517.5743842.92437281.9454282 1.585.988.44.0273333.86933333.041 1.288.041 4.587 0 7.873-1.612 9.3-4.543.6133607.4083793 1.2516002.7780974 1.911 1.107.1198273 1.8709926-.4449462 3.7217011-1.589 5.207h-1.589c-6.62444695.0071648-11.99283515 5.375553-12 12v3c0 .530433.21071368 1.0391408.58578644 1.4142136.37507276.3750727.88378058.5857864 1.41421356.5857864zm26.081-14.779-5.539 7.406c-.1626319.2177822-.4119829.354015-.6831093.3732166s-.5371887-.0805289-.7288907-.2732166l-.862-.869 4.286-6.858h1.446c.699494.0005496 1.3969927.0746232 2.081.221zm-17.55-14.592c-.1612867-.4876036-.66571932-.7737514-1.167-.662-.11233274.0245186-.2270241.0365914-.342.036-1.1045695 0-2-.8954305-2-2s.8954305-2 2-2c.55228475 0 1-.4477153 1-1v-2.958c2.662-.1 6.386-.6 8.436-2.487.2051379-.1940035.393788-.4047295.564-.63.1708531.2250438.3598156.4357454.565.63 2.05 1.886 5.774 2.387 8.435 2.487v2.955c0 .5522847.4477153 1 1 1 1.1045695 0 2 .8954305 2 2s-.8954305 2-2 2c-.1146426.0005342-.2289963-.0115383-.341-.036-.5012807-.1117514-1.0057133.1743964-1.167.662-1.235 3.732-6.95 6.374-8.492 6.374s-7.256-2.642-8.491-6.371zm22.574-12.223c2.355 5.294 1.932 9.894 1.595 13.585-.256 2.78-.476 5.182.54 7.2-2.736.167-7.387-.127-8.826-3.751 1.1323629-.9445827 2.0536007-2.1165715 2.704-3.44 1.9949968-.0494197 3.6483744-1.5617232 3.8750542-3.5444161.2266798-1.9826928-1.0426928-3.8291522-2.9750542-4.3275839v-2.073c.614-.018 1.015-.049 1.083-.055.3586714-.0262881.6756034-.2431472.8300246-.56794s.1225457-.7074906-.0834799-1.0022613c-.2060255-.2947706-.5544665-.4562097-.9125447-.4227987-2.014.164-7.751.146-10-1.923-.5917145-.5217516-.9256419-1.2761937-.914-2.065 2.6383268.0279558 5.2500378.5309896 7.71 1.485h.01c.2537021.1041456.5017155.2216433.743.352.4741365.2833221 1.0881779.1286365 1.3715-.3455s.1286365-1.0881779-.3455-1.3715c-.016-.01-.079-.046-.174-.1l.573-1.861c1.3786851 1.1425222 2.4728276 2.5899672 3.196 4.228zm-25.171-14.34c3.4955841-1.48172339 7.2712589-2.18663429 11.066-2.066 3.7968564-.12033306 7.574562.58525718 11.072 2.068.4331342.21679015.6449553.71584078.5 1.178l-3.085 10.022c-2.739969-.8867289-5.6075045-1.3151529-8.487-1.268-2.8794955-.0471529-5.747031.3812711-8.487 1.268l-3.088-10.023c-.14369649-.46471499.07223659-.9648822.509-1.179zm-5.1 35.1c.979-2 .76-4.4.5-7.178-.334-3.688-.754-8.288 1.6-13.582.71470532-1.6239147 1.79639255-3.0598888 3.16-4.195l.565 1.835c-.095.051-.158.087-.174.1-.30671251.1832772-.49234931.5162616-.48698281.873521.0053665.3572595.20092099.6845178.513.8585s.6932703.1682562.99998281-.015021c.03-.018 2.9-1.665 8.51-1.842.0128113.7899651-.3225633 1.5455636-.917 2.066-2.246 2.07-7.983 2.088-10 1.923-.53023108-.0140034-.97915225.3884184-1.02298106.9170204-.04382882.5286021.33268437.9994644.85798106 1.0729796.069.006.47.037 1.083.055v2.075c-1.9295169.5016765-3.19503125 2.3476359-2.96727296 4.3282522s1.87924674 3.4911388 3.87227296 3.5417478c.64970283 1.3216146 1.5695257 2.4921744 2.7 3.436-1.435 3.63-6.085 3.925-8.789 3.734zm16.188-.166c.6189746-.0334403 1.2297501-.1570777 1.813-.367.0368448 1.9855748.7051436 3.9078097 1.908 5.488l-3.743 5.992-3.744-5.99c1.2032658-1.5846203 1.8717758-3.5106573 1.909-5.5.5970289.2165294 1.222799.3435705 1.857.377zm-5.576 6 4.286 6.857-.859.866c-.1905966.1935779-.4559613.2946899-.7270471.2770271-.2710857-.0176628-.5210865-.1523539-.6849529-.3690271l-5.542-7.41c.6840073-.1463768 1.381506-.2204504 2.081-.221zm-11.446 10c.00581278-3.9384342 2.32098958-7.50729 5.915-9.118l5.947 7.951c.5128833.6799428 1.2957487 1.103665 2.1454881 1.1612354.8497395.0575705 1.6826033-.256685 2.2825119-.8612354l.71-.716.713.718c.5514842.5529286 1.3000621.8640866 2.081.865.067 0 .135 0 .2-.007.8502458-.059256 1.6328935-.4846953 2.145-1.166l5.944-7.947c3.5954523 1.6104116 5.9116203 5.1803713 5.917 9.12v3h-34z"/><path id="Shape" d="m16 10h2v2c0 .5522847.4477153 1 1 1s1-.4477153 1-1v-2h2c.5522847 0 1-.44771525 1-1s-.4477153-1-1-1h-2v-2c0-.55228475-.4477153-1-1-1s-1 .44771525-1 1v2h-2c-.5522847 0-1 .44771525-1 1s.4477153 1 1 1z"/><path id="Shape" d="m33 53h-1v-1c0-.5522847-.4477153-1-1-1s-1 .4477153-1 1v1h-1c-.5522847 0-1 .4477153-1 1s.4477153 1 1 1h1v1c0 .5522847.4477153 1 1 1s1-.4477153 1-1v-1h1c.5522847 0 1-.4477153 1-1s-.4477153-1-1-1z"/></g></g></svg>